<mxfile host="app.diagrams.net" modified="2021-05-13T22:09:31.652Z" agent="5.0 (Macintosh; Intel Mac OS X 10_15_7) AppleWebKit/537.36 (KHTML, like Gecko) Chrome/90.0.4430.93 Safari/537.36" etag="wLQ2g3p891YDNGVO961P" version="14.6.13" type="github">
  <diagram id="_W_Y0c90tjks6PsYSaU9" name="Page-1">
    <mxGraphModel dx="1082" dy="695" grid="1" gridSize="10" guides="1" tooltips="1" connect="1" arrows="1" fold="1" page="1" pageScale="1" pageWidth="827" pageHeight="1169" math="0" shadow="0">
      <root>
        <mxCell id="0" />
        <mxCell id="1" parent="0" />
        <mxCell id="WBAyxkJTL4HtEl_IWnUc-1" value="Machine Spots Tennis ball" style="rounded=1;whiteSpace=wrap;html=1;" vertex="1" parent="1">
          <mxGeometry x="316" y="250" width="120" height="60" as="geometry" />
        </mxCell>
        <mxCell id="WBAyxkJTL4HtEl_IWnUc-2" value="" style="endArrow=classic;html=1;exitX=0.5;exitY=1;exitDx=0;exitDy=0;" edge="1" parent="1" source="WBAyxkJTL4HtEl_IWnUc-1">
          <mxGeometry width="50" height="50" relative="1" as="geometry">
            <mxPoint x="352" y="650" as="sourcePoint" />
            <mxPoint x="376" y="370" as="targetPoint" />
          </mxGeometry>
        </mxCell>
        <mxCell id="WBAyxkJTL4HtEl_IWnUc-3" value="If multiple tennis balls" style="rounded=1;whiteSpace=wrap;html=1;" vertex="1" parent="1">
          <mxGeometry x="316" y="370" width="120" height="60" as="geometry" />
        </mxCell>
        <mxCell id="WBAyxkJTL4HtEl_IWnUc-5" value="" style="endArrow=classic;html=1;exitX=1;exitY=0.5;exitDx=0;exitDy=0;entryX=0.5;entryY=0;entryDx=0;entryDy=0;" edge="1" parent="1" source="WBAyxkJTL4HtEl_IWnUc-1" target="WBAyxkJTL4HtEl_IWnUc-6">
          <mxGeometry width="50" height="50" relative="1" as="geometry">
            <mxPoint x="352" y="660" as="sourcePoint" />
            <mxPoint x="582" y="290" as="targetPoint" />
            <Array as="points">
              <mxPoint x="542" y="280" />
            </Array>
          </mxGeometry>
        </mxCell>
        <mxCell id="WBAyxkJTL4HtEl_IWnUc-6" value="If tennis ball on right" style="rounded=1;whiteSpace=wrap;html=1;" vertex="1" parent="1">
          <mxGeometry x="482" y="370" width="120" height="60" as="geometry" />
        </mxCell>
        <mxCell id="WBAyxkJTL4HtEl_IWnUc-7" value="" style="endArrow=classic;html=1;entryX=0.5;entryY=0;entryDx=0;entryDy=0;" edge="1" parent="1" target="WBAyxkJTL4HtEl_IWnUc-8">
          <mxGeometry width="50" height="50" relative="1" as="geometry">
            <mxPoint x="316" y="280" as="sourcePoint" />
            <mxPoint x="232" y="310" as="targetPoint" />
            <Array as="points">
              <mxPoint x="222" y="280" />
            </Array>
          </mxGeometry>
        </mxCell>
        <mxCell id="WBAyxkJTL4HtEl_IWnUc-8" value="If tennis ball on left" style="rounded=1;whiteSpace=wrap;html=1;" vertex="1" parent="1">
          <mxGeometry x="162" y="370" width="120" height="60" as="geometry" />
        </mxCell>
        <mxCell id="WBAyxkJTL4HtEl_IWnUc-9" value="" style="endArrow=classic;html=1;exitX=0.5;exitY=1;exitDx=0;exitDy=0;" edge="1" parent="1" source="WBAyxkJTL4HtEl_IWnUc-8">
          <mxGeometry width="50" height="50" relative="1" as="geometry">
            <mxPoint x="232" y="450" as="sourcePoint" />
            <mxPoint x="222" y="490" as="targetPoint" />
          </mxGeometry>
        </mxCell>
        <mxCell id="WBAyxkJTL4HtEl_IWnUc-10" value="" style="endArrow=classic;html=1;exitX=0.5;exitY=1;exitDx=0;exitDy=0;" edge="1" parent="1">
          <mxGeometry width="50" height="50" relative="1" as="geometry">
            <mxPoint x="375.5" y="430" as="sourcePoint" />
            <mxPoint x="375.5" y="490" as="targetPoint" />
          </mxGeometry>
        </mxCell>
        <mxCell id="WBAyxkJTL4HtEl_IWnUc-11" value="" style="endArrow=classic;html=1;exitX=0.5;exitY=1;exitDx=0;exitDy=0;" edge="1" parent="1">
          <mxGeometry width="50" height="50" relative="1" as="geometry">
            <mxPoint x="541.5" y="430" as="sourcePoint" />
            <mxPoint x="541.5" y="490" as="targetPoint" />
          </mxGeometry>
        </mxCell>
        <mxCell id="WBAyxkJTL4HtEl_IWnUc-12" value="Machine turns&lt;br&gt;left and moves forwards" style="shape=parallelogram;perimeter=parallelogramPerimeter;whiteSpace=wrap;html=1;fixedSize=1;" vertex="1" parent="1">
          <mxGeometry x="162" y="490" width="120" height="60" as="geometry" />
        </mxCell>
        <mxCell id="WBAyxkJTL4HtEl_IWnUc-13" value="Machine turns&lt;br&gt;and &lt;br&gt;moves forwards&amp;nbsp;" style="shape=parallelogram;perimeter=parallelogramPerimeter;whiteSpace=wrap;html=1;fixedSize=1;" vertex="1" parent="1">
          <mxGeometry x="316" y="490" width="120" height="60" as="geometry" />
        </mxCell>
        <mxCell id="WBAyxkJTL4HtEl_IWnUc-14" value="Machine turns&lt;br&gt;right and moves forwards" style="shape=parallelogram;perimeter=parallelogramPerimeter;whiteSpace=wrap;html=1;fixedSize=1;" vertex="1" parent="1">
          <mxGeometry x="482" y="490" width="120" height="60" as="geometry" />
        </mxCell>
        <mxCell id="WBAyxkJTL4HtEl_IWnUc-15" value="" style="endArrow=classic;html=1;exitX=0.5;exitY=1;exitDx=0;exitDy=0;entryX=0;entryY=0.5;entryDx=0;entryDy=0;" edge="1" parent="1" source="WBAyxkJTL4HtEl_IWnUc-12" target="WBAyxkJTL4HtEl_IWnUc-18">
          <mxGeometry width="50" height="50" relative="1" as="geometry">
            <mxPoint x="328" y="630" as="sourcePoint" />
            <mxPoint x="128" y="160" as="targetPoint" />
            <Array as="points">
              <mxPoint x="222" y="610" />
              <mxPoint x="128" y="610" />
              <mxPoint x="128" y="160" />
            </Array>
          </mxGeometry>
        </mxCell>
        <mxCell id="WBAyxkJTL4HtEl_IWnUc-16" value="" style="endArrow=classic;html=1;exitX=0.5;exitY=1;exitDx=0;exitDy=0;entryX=1;entryY=0.5;entryDx=0;entryDy=0;" edge="1" parent="1" source="WBAyxkJTL4HtEl_IWnUc-14" target="WBAyxkJTL4HtEl_IWnUc-18">
          <mxGeometry width="50" height="50" relative="1" as="geometry">
            <mxPoint x="328" y="630" as="sourcePoint" />
            <mxPoint x="438" y="160" as="targetPoint" />
            <Array as="points">
              <mxPoint x="542" y="610" />
              <mxPoint x="635" y="610" />
              <mxPoint x="635" y="160" />
            </Array>
          </mxGeometry>
        </mxCell>
        <mxCell id="WBAyxkJTL4HtEl_IWnUc-18" value="Machine is looking for a tennis ball" style="rounded=1;whiteSpace=wrap;html=1;" vertex="1" parent="1">
          <mxGeometry x="316" y="130" width="120" height="60" as="geometry" />
        </mxCell>
        <mxCell id="WBAyxkJTL4HtEl_IWnUc-19" value="" style="endArrow=classic;html=1;exitX=0.5;exitY=1;exitDx=0;exitDy=0;" edge="1" parent="1" source="WBAyxkJTL4HtEl_IWnUc-18">
          <mxGeometry width="50" height="50" relative="1" as="geometry">
            <mxPoint x="352" y="530" as="sourcePoint" />
            <mxPoint x="376" y="250" as="targetPoint" />
          </mxGeometry>
        </mxCell>
        <mxCell id="WBAyxkJTL4HtEl_IWnUc-21" value="" style="endArrow=classic;html=1;exitX=0.5;exitY=1;exitDx=0;exitDy=0;entryX=0.5;entryY=0;entryDx=0;entryDy=0;" edge="1" parent="1" target="WBAyxkJTL4HtEl_IWnUc-18">
          <mxGeometry width="50" height="50" relative="1" as="geometry">
            <mxPoint x="375.5" y="550" as="sourcePoint" />
            <mxPoint x="376" y="40" as="targetPoint" />
            <Array as="points">
              <mxPoint x="376" y="680" />
              <mxPoint x="698" y="680" />
              <mxPoint x="698" y="80" />
              <mxPoint x="376" y="80" />
            </Array>
          </mxGeometry>
        </mxCell>
      </root>
    </mxGraphModel>
  </diagram>
</mxfile>
